<svg id="Слой_1" data-name="Слой 1" xmlns="http://www.w3.org/2000/svg" width="348" height="615.45162" viewBox="0 0 348 615.45162">
  <defs>
    <style>
      .cls-1 {
        fill: #e4f6fe;
      }

      .cls-2 {
        fill: #383838;
      }
    </style>
  </defs>
  <title>alpaca-anima3l</title>
  <g>
    <path class="cls-1" d="M1,364q0-9.5,0-19a66.12056,66.12056,0,0,0,1.938-8.00928c.56958-4.76068.45795-9.61179,1.16453-14.34546,1.80375-12.084,3.80171-24.14151,5.90714-36.17725,2.43963-13.94617,4.56658-27.977,7.78453-41.74791,2.741-11.72966,6.89761-23.12483,10.30369-34.70451,1.44663-4.91812,2.47028-9.95956,3.86964-14.89291,3.96762-13.98753,8.22218-27.89673,11.982-41.939,2.21568-8.27516,3.88312-16.71262,5.40319-25.14807.40211-2.2315-.50611-4.76208-1.07183-7.09243-1.34449-5.53841-3.40126-10.9674-4.12369-16.57542-.71794-5.57317-.32335-11.3176-.10039-16.97447a62.251,62.251,0,0,1,1.38429-11.79285c1.19441-5.06319,3.08841-9.95815,4.53629-14.96746a6.83928,6.83928,0,0,0-.18568-3.25526c-.50738-2.1889-1.42095-4.30359-1.74681-6.51089-.98938-6.70165-1.49623-13.48458-2.71548-20.13977C43.73468,22.02215,43.35367,13.60915,48.13933,5.672c1.95863-3.24844,5.89059-4.00335,7.53532-.96947a109.175,109.175,0,0,1,6.30092,14.35927c1.75483,4.76973,2.99368,9.72929,4.53563,14.86023,21.88334-12.65,42.735-10.74561,63.18584,3.283,3.50273-6.56049,7.15187-12.52685,9.95349-18.86769C142.973,10.81778,147.28928,4.48841,155,1h9c4.6861,6.24215,3.89835,12.84533.763,19.263a172.092,172.092,0,0,1-9.68909,17.34376c-3.33189,5.19615-6.17693,11.10778-12.54059,12.81465,2.73691,4.75056,6.52473,9.161,7.98572,14.24064,5.918,20.57626,4.33658,40.94773-3.53482,60.83443-.94872,2.39692-2.465,4.64419-2.998,7.1161-1.39095,6.45067-2.40791,12.98309-3.52681,19.491-1.84341,10.72224-3.7155,21.44025-5.44839,32.18054-1.15259,7.1434-2.15591,14.31348-3.05449,21.49309-.18246,1.45795-.12569,3.47635.72362,4.444A172.92263,172.92263,0,0,0,146.59773,224.901a39.4327,39.4327,0,0,0,11.59447,7.45334c5.46043,2.14589,11.35411,3.31166,17.15077,4.43947,4.31711.84,8.85565,1.66681,13.15073,1.19124,4.67162-.51729,9.104-2.907,13.76888-3.83713,8.22528-1.64,16.53732-3.83749,24.83209-3.92165,15.40134-.1562,30.74872,1.59,45.42044,6.83083,4.76788,1.70311,10.13834,3.03485,13.81561,6.18906,6.70306,5.74968,12.32065,12.75931,18.46445,19.173.83325.86981,2.114,1.9375,3.14664,1.8959,15.83591-.638,28.52411,12.59985,32.03513,26.82809.94012,3.80966,1.46359,7.72421,2.13043,11.59882,1.31055,7.61526,3.03592,15.19391,3.761,22.866.84174,8.90643.91846,17.89444,1.09552,26.85162.16788,8.49207-.1604,16.99667.12708,25.4823C347.21643,381.64523,348.33334,385.315,349,389v2c-3.11469,6.64392-8.95343,9.57144-15.65326,10.84036a87.12589,87.12589,0,0,1-13.35382,1.102c-2.54816.08264-4.004.50879-4.05969,3.54221-.18442,10.04251-.27594,20.10489-1.01395,30.11462-.98444,13.35226-2.08841,26.729-4.03668,39.96338-1.02942,6.9924-4.45349,13.60962-1.86841,20.96936a27.99852,27.99852,0,0,1,.96976,6.84946c.51935,6.104.76227,12.23779,1.47894,18.31689.53925,4.574,3.32578,9.25732-1.729,13.1236-.60565.46326-.38251,1.90265-.75461,2.80231-.65427,1.58191-1.51926,3.0755-2.207,4.64508a18.97878,18.97878,0,0,0-1.71622,4.52307c-1.39105,9.14368-2.876,18.284-3.85968,27.47571-1.17142,10.946-4.28152,21.88867-.40659,32.96313.86176,2.46277-.00491,4.49512-3.28494,4.86328-1.49448.16772-2.80292,1.61426-4.31946,2.05511-2.08847.60706-5.23544,1.89453-6.27759.98938-3.48212-3.02441-7.13113-2.2804-11.04581-2.23914-5.93149.06256-7.97064-3.69012-5.26367-8.8634.8378-1.60107,2.06564-3.18939,2.28348-4.89.88217-6.88751,1.52628-13.80957,2.09125-20.73248.4581-5.61365.12137-11.34845,1.12659-16.84869,1.71713-9.39551-4.60379-16.46674-6.31064-24.82385-.11224-.5495-1.00266-.89764-1.28671-1.46234-.89658-1.78217-2.37674-3.62311-2.37588-5.4408.003-6.45789.92011-12.926.74655-19.37027a193.9635,193.9635,0,0,0-1.917-21.13556c-1.61768-11.768-3.5936-23.48669-5.40952-35.22757a27.64032,27.64032,0,0,1-.48929-3.92566c-.06183-6.74731.139-13.505-.208-20.2356-.07654-1.485-2.00159-2.87457-3.07544-4.30807-.924,1.52933-2.3501,2.96194-2.667,4.60815a46.38054,46.38054,0,0,0-.94145,10.355c.22627,6.2395.97437,12.45834,1.39644,18.69315.27475,4.05859.58466,8.13593.481,12.19467-.22672,8.87469-1.18654,17.75714-.923,26.60892.19086,6.41083,2.09985,12.75162,2.811,19.17145a173.6513,173.6513,0,0,1,.88533,17.36438,5.74007,5.74007,0,0,1-2.10419,3.91913c-2.46857,1.93634-3.27847,3.9726-2.01094,6.91949a5.07571,5.07571,0,0,1,.32678,3.26813c-3.88162,11.88385-1.87935,23.95575-1.27736,35.97925.37311,7.45215.97729,14.89746,1.11246,22.35248a5.52722,5.52722,0,0,1-2.64389,4.12061,29.2641,29.2641,0,0,1-8.98511,2.79181,18.43286,18.43286,0,0,1-7.82831-.88635c-2.7849-.91809-4.92422-2.54694-8.29718-.63153-1.65251.93848-5.398-.21814-7.20451-1.66492-1.34885-1.0802-1.63524-4.19049-1.45273-6.31592.27991-3.25946,1.3672-6.45,2.1163-9.6687,2.32091-9.97253,5.04025-19.87421,6.82722-29.94147,1.19669-6.7417,2.15326-13.91632-4.16737-19.36133-.72348-.62323-.61537-2.34436-.67822-3.5675-.075-1.45978.70142-3.35138.03821-4.33081-4.86952-7.19135-1.46939-15.48529-3.3307-23.16492-2.23434-9.21881-2.61687-18.89212-3.7081-28.37933-.37845-3.29022-.47987-6.61237-.70573-9.92007-.94746-13.87552-1.96632-27.7471-2.74144-41.63223a6.67427,6.67427,0,0,1,1.92406-4.75665c3.705-3.276,7.70676-6.23038,11.70183-9.16183,11.17877-8.20255,22.20494-16.91791,26.89075-30.38837,3.32329-9.55356,4.40669-19.89764,6.28815-29.92673.23117-1.23221-.78571-2.69852-1.2242-4.05634l-1.60167.0657c-1.35976,5.57153-2.88763,11.10849-4.04218,16.72223-2.03052,9.87314-5.01526,19.31876-12.85178,26.20126-7.0813,6.21921-14.55368,11.9928-21.84592,17.97229-13.52837,11.093-27.187,21.79446-45.5206,23.89456-11.45515,1.31223-22.83841,3.25327-34.25183,4.92636-1.03558.15182-2.05583.40805-3.08321.61581l.05666,1.77255c11.7041,1.96448,23.48459.26236,35.28387-.31921,12.47037-.61462,23.75386-4.62292,34.88287-10.88083-.08887,2.6022-.44115,5.51678-1.7933,6.09564-11.26562,4.82266-22.466,10.07468-34.18567,13.47556-10.07571,2.9238-20.78122,3.78378-31.25774,5.18686-8.68769,1.16348-11.83281,5.25256-10.05232,13.89645a24.89945,24.89945,0,0,1,.55158,5.42145c-.28366,15.78986.05552,31.63721-1.27369,47.342-.64471,7.61743-4.44472,14.97034-6.83859,22.43585-.92074,2.8714-2.20445,5.66553-2.76441,8.60132-.46,2.41174-.12293,4.98145-.08883,7.48041.158,11.579-.90057,23.24475,3.59352,34.43262,1.34631,3.35162-4.46328,11.34961-7.65858,11.36945-3.67882.02283-7.35841.09015-11.03609.03442a36.43735,36.43735,0,0,1-3.911-.52509,35.51525,35.51525,0,0,1-5.73786-.73639c-2.873-.85931-6.30392-1.46686-8.18055-3.43671-1.121-1.1767-.64465-5.58429.717-7.07715a22.63545,22.63545,0,0,0,5.85767-12.212c1.87659-11.31525,5.76667-22.593-1.26072-33.55231a5.30125,5.30125,0,0,1-.37317-1.93475c-1.46325-9.03571-3.16083-18.04114-4.33554-27.11432-2.39069-18.46509-3.495-36.93954.7543-55.34824.887-3.84274,2.2271-8.77524-2.10452-10.7843-3.8611-1.79083-8.7095-1.50015-13.1404-1.94772-.48174-.04868-1.3997,1.01736-1.57435,1.70395a35.82722,35.82722,0,0,0-1.51317,7.7583c-.20573,8.24362.063,16.50015-.19353,24.74106-.13313,4.2767-.99387,8.53006-1.5125,12.79556-1.13677,9.34946-2.239,18.70328-3.42436,28.0466-.18081,1.42517-.28185,3.51215-1.185,4.08356-4.4013,2.78461-3.75462,6.98846-3.82026,11.13031a42.95483,42.95483,0,0,1-.68176,7.89648c-3.13334,15.31146-3.49448,30.5293.15637,45.869.84689,3.55835,1.16612,8.82642-3.08352,10.44348-4.16986,1.58667-9.12711,1.18085-13.75025,1.45959-1.71085.10321-3.51271-.71405-5.17271-.45886-7.05817,1.08545-11.67947-3.15088-8.83188-9.442,5.3323-11.78064,4.3147-23.99133,4.39517-36.2182.01864-2.83264.451-5.75372-.08586-8.48083-1.33311-6.77118-3.10761-13.45581-4.7358-20.16766a2.04887,2.04887,0,0,0-.74595-1.26685c-5.325-2.72668-4.6509-8.13568-5.31468-12.65527-2.72083-18.52585.4852-37.33121-2.85332-55.95016-1.53422-8.55634-.215-17.61645-.28454-26.44736-.02667-3.38828.64189-7.20514-.65225-10.08777C7.44455,420.95587,5.39313,406.954,3.202,393.04224c-1.2313-7.81772-.80951-15.89111-1.237-23.84369A39.22332,39.22332,0,0,0,1,364ZM84.50533,102.90132c-.80943,2.81322-.96481,4.9421,2.80831,5.121a5.2914,5.2914,0,0,1,2.807.63253c6.4013,4.8818,13.30949,1.19328,19.95871,1.08451.97675-.016,1.91219-2.55718,2.86674-3.93-1.24-.18706-2.47871-.38371-3.72061-.55735-.68079-.09518-1.68569.10968-1.99664-.26971-1.48939-1.81732-3.39013-3.6404-3.91434-5.765-.27285-1.1058,1.75077-3.19072,3.18163-4.20816a59.00309,59.00309,0,0,1,7.27274-3.85114c.24807-4.60836-4.91368-11.84406-9.56768-13.06219-5.06261-1.32507-14.95863,1.89315-16.55753,6.05785-.65436,1.70441.81028,4.32944,1.56924,6.44292C90.21791,93.3953,92.59052,96.2,92.362,98.827,92.02744,102.67284,88.43764,103.63166,84.50533,102.90132ZM83,69.78c-.03738-5.50028-9.18527-16.0386-14.51988-15.365-2.69463.34023-4.9549,4.1206-7.41156,6.34551,1.30173,1.41237,2.39024,3.16145,3.95777,4.15408,2.08144,1.318,4.17032,1.94965,4.0816,5.25574-.14256,5.31277,2.09128,7.0119,7.72586,6.82945C81.66074,76.84344,83.037,75.232,83,69.78Zm31.74845,1.39057c.28725,1.9058-.06394,4.33072.98325,5.6186,2.96256,3.64345,12.88368.74922,14.30568-3.875.30661-.99709,1.11929-2.679,1.60713-2.647,3.90753.25637,4.62045-1.556,5.616-5.16537.99852-3.6202-.135-4.20568-2.64035-4.00889a121.32658,121.32658,0,0,0-13.44094,1.97919C116.87458,63.90288,113.67707,65.85963,114.74841,71.17057Z" transform="translate(-1 -1)"/>
    <path class="cls-2" d="M84.50533,102.90132c3.93232.73034,7.52211-.22848,7.85667-4.07434.22852-2.627-2.14408-5.43168-3.14913-8.2304-.759-2.11347-2.22359-4.7385-1.56924-6.44292,1.5989-4.1647,11.49493-7.38292,16.55753-6.05785,4.654,1.21813,9.81575,8.45383,9.56768,13.06219a59.00309,59.00309,0,0,0-7.27274,3.85114c-1.43085,1.01744-3.45448,3.10236-3.18163,4.20816.52422,2.1246,2.425,3.94769,3.91434,5.765.31094.37939,1.31584.17454,1.99664.26971,1.24191.17364,2.48058.37029,3.72061.55735-.95455,1.37283-1.89,3.914-2.86674,3.93-6.64922.10876-13.55741,3.79729-19.95871-1.08451a5.2914,5.2914,0,0,0-2.807-.63253C83.54052,107.84342,83.69589,105.71454,84.50533,102.90132Z" transform="translate(-1 -1)"/>
    <path class="cls-2" d="M83,69.78c.03706,5.452-1.33922,7.06345-6.16621,7.21974-5.63458.18245-7.86842-1.51669-7.72586-6.82945.08871-3.30608-2.00017-3.93769-4.0816-5.25574-1.56753-.99263-2.656-2.74171-3.95777-4.15408,2.45667-2.22491,4.71693-6.00528,7.41156-6.34551C73.81468,53.7414,82.96257,64.27972,83,69.78Z" transform="translate(-1 -1)"/>
    <path class="cls-2" d="M114.74841,71.17057c-1.07133-5.31094,2.12617-7.26769,6.43074-8.09848a121.32658,121.32658,0,0,1,13.44094-1.97919c2.50536-.19678,3.63887.38869,2.64035,4.00889-.99551,3.60941-1.70844,5.42174-5.616,5.16537-.48784-.032-1.30052,1.64989-1.60713,2.647-1.422,4.62425-11.34312,7.51848-14.30568,3.875C114.68446,75.50129,115.03565,73.07637,114.74841,71.17057Z" transform="translate(-1 -1)"/>
  </g>
</svg>
