<?xml version="1.0" encoding="utf-8"?>
<!-- Generator: Adobe Illustrator 21.1.0, SVG Export Plug-In . SVG Version: 6.00 Build 0)  -->
<svg version="1.1" id="Слой_1" xmlns="http://www.w3.org/2000/svg" xmlns:xlink="http://www.w3.org/1999/xlink" x="0px" y="0px"
	 viewBox="0 0 256 91.5" style="enable-background:new 0 0 256 91.5;" xml:space="preserve">
<style type="text/css">
	.st0{fill:url(#SVGID_1_);}
	.st1{fill:#FEB461;}
</style>
<linearGradient id="SVGID_1_" gradientUnits="userSpaceOnUse" x1="136.0104" y1="142.2007" x2="110.5654" y2="-27.6427">
	<stop  offset="0" style="stop-color:#FF6600"/>
	<stop  offset="0.9223" style="stop-color:#FFBA00"/>
</linearGradient>
<path class="st0" d="M-8.2,109.5c0-1,0-1.9,0-2.9c0-0.2,0.1-0.4,0.1-0.6c0.1-8.8,0.3-17.7,0.2-26.5c0-2.5,0.6-4.7,1.9-6.8
	c0.1-0.1,0.2-0.3,0.2-0.4c3.4-5.5,8-9.8,13.3-13.5c6.5-4.5,13.6-7.5,21.1-9.8c7.6-2.3,15.4-3.6,23.3-4.3c6.8-0.6,13.7-0.9,20.6-0.7
	c6.4,0.2,12.9,0.5,19.3,0.5c12.5,0.2,25-0.5,37.3-2.6c11.3-1.9,22.2-5.1,32.6-9.9c5.9-2.7,11.7-5.6,17.6-8.3
	c8.6-4,17.7-6.6,27.2-7.1c10.1-0.6,20,0.6,29.7,3.5c6.4,1.9,12.4,4.6,17.7,8.7c4,3.1,7.1,6.8,7.9,12c0.6,3.4,1.1,6.8,1.4,10.3
	c0.3,3.1,0.3,6.3,0.4,9.4c0,0.4,0.2,0.8,0.2,1.2c0,3.4,0,6.8,0,10.2c0,0.1-0.1,0.2-0.1,0.3c0,1.8-0.1,3.7-0.1,5.5
	c0,0.1,0.1,0.2,0.1,0.3c0,0.6,0,1.2,0,1.8c0,0.4-0.1,0.8-0.1,1.3c-0.2,3.9-0.4,7.8-0.5,11.7c-0.1,1.4,0,2.8-0.1,4.1
	c-0.4,6-0.7,12.1-1.1,18.2c0,0.2-0.1,0.4-0.1,0.6c-0.2,0-0.4,0-0.6,0c-8.5,0.1-17.1,0.2-25.6,0.3c-13.9,0.2-27.7,0.4-41.6,0.5
	c-17.3,0.2-34.7,0.4-52,0.7c-13.9,0.2-27.7,0.4-41.6,0.5s-27.7,0.4-41.6,0.5c-19.3,0.2-38.6,0.5-58,0.7c-0.2,0-0.4,0.1-0.7,0.1
	c-2.9,0-5.8,0-8.6,0c0-0.4,0-0.9,0-1.3c0.1-2.7,0.1-5.4,0.1-8.1C-8,109.6-8.1,109.5-8.2,109.5z"/>
<path class="st1" d="M-1011,429.5c0.4,0.7,1.1,1.4,1,2.1c-0.3,20.6-0.7,41.3-1,61.9C-1011,472.1-1011,450.8-1011,429.5z"/>
</svg>
